<svg width="40" height="40" viewBox="0 0 40 40" fill="none" xmlns="http://www.w3.org/2000/svg">
<rect x="0.5" y="0.5" width="39" height="39" rx="5.5" fill="white" fill-opacity="0.2"/>
<g clip-path="url(#clip0_3_127)">
<path d="M5 35L15.3683 24.6317M35 16.5C35 22.8513 29.8513 28 23.5 28C17.1487 28 12 22.8513 12 16.5C12 10.1487 17.1487 5 23.5 5C29.8513 5 35 10.1487 35 16.5Z" stroke="url(#paint0_radial_3_127)" stroke-width="2" stroke-linecap="round" stroke-linejoin="round"/>
<path d="M5 35L15.3683 24.6317M35 16.5C35 22.8513 29.8513 28 23.5 28C17.1487 28 12 22.8513 12 16.5C12 10.1487 17.1487 5 23.5 5C29.8513 5 35 10.1487 35 16.5Z" stroke="url(#paint1_radial_3_127)" stroke-width="2" stroke-linecap="round" stroke-linejoin="round"/>
<path d="M5 35L15.3683 24.6317M35 16.5C35 22.8513 29.8513 28 23.5 28C17.1487 28 12 22.8513 12 16.5C12 10.1487 17.1487 5 23.5 5C29.8513 5 35 10.1487 35 16.5Z" stroke="url(#paint2_radial_3_127)" stroke-width="2" stroke-linecap="round" stroke-linejoin="round"/>
</g>
<rect x="0.5" y="0.5" width="39" height="39" rx="5.5" stroke="url(#paint3_linear_3_127)"/>
<defs>
<radialGradient id="paint0_radial_3_127" cx="0" cy="0" r="1" gradientUnits="userSpaceOnUse" gradientTransform="translate(5 12.0898) rotate(37.368) scale(37.7475)">
<stop stop-color="#6100FF"/>
<stop offset="0.582544" stop-color="#0B033C"/>
<stop offset="1"/>
</radialGradient>
<radialGradient id="paint1_radial_3_127" cx="0" cy="0" r="1" gradientUnits="userSpaceOnUse" gradientTransform="translate(35 20.8203) rotate(154.702) scale(33.1823)">
<stop stop-color="#CC00FF"/>
<stop offset="0.395099" stop-color="#0B033C"/>
<stop offset="1" stop-opacity="0"/>
</radialGradient>
<radialGradient id="paint2_radial_3_127" cx="0" cy="0" r="1" gradientUnits="userSpaceOnUse" gradientTransform="translate(11.5625 35) rotate(-52.0013) scale(38.0699)">
<stop stop-color="#107EBB"/>
<stop offset="0.395099" stop-color="#03203C"/>
<stop offset="1" stop-opacity="0"/>
</radialGradient>
<linearGradient id="paint3_linear_3_127" x1="20" y1="0" x2="20" y2="40" gradientUnits="userSpaceOnUse">
<stop stop-opacity="0.1"/>
<stop offset="1" stop-opacity="0.2"/>
</linearGradient>
<clipPath id="clip0_3_127">
<rect width="32" height="32" fill="white" transform="translate(4 4)"/>
</clipPath>
</defs>
</svg>
