<svg width="40" height="40" viewBox="0 0 40 40" fill="none" xmlns="http://www.w3.org/2000/svg">
<path d="M8 17C6.34315 17 5 18.3431 5 20V20C5 21.6569 6.34315 23 8 23V23C9.65685 23 11 21.6569 11 20V20C11 18.3431 9.65685 17 8 17V17Z" fill="black"/>
<path d="M20 17C18.3431 17 17 18.3431 17 20V20C17 21.6569 18.3431 23 20 23V23C21.6569 23 23 21.6569 23 20V20C23 18.3431 21.6569 17 20 17V17Z" fill="black"/>
<path d="M32 17C30.3431 17 29 18.3431 29 20V20C29 21.6569 30.3431 23 32 23V23C33.6569 23 35 21.6569 35 20V20C35 18.3431 33.6569 17 32 17V17Z" fill="black"/>
<path d="M32 5C30.3431 5 29 6.34315 29 8V8C29 9.65685 30.3431 11 32 11V11C33.6569 11 35 9.65685 35 8V8C35 6.34315 33.6569 5 32 5V5Z" fill="black"/>
<path d="M20 5C18.3431 5 17 6.34315 17 8V8C17 9.65685 18.3431 11 20 11V11C21.6569 11 23 9.65685 23 8V8C23 6.34315 21.6569 5 20 5V5Z" fill="black"/>
<path d="M8 5C6.34315 5 5 6.34315 5 8V8C5 9.65685 6.34315 11 8 11V11C9.65685 11 11 9.65685 11 8V8C11 6.34315 9.65685 5 8 5V5Z" fill="black"/>
<path d="M8 29C6.34315 29 5 30.3431 5 32V32C5 33.6569 6.34315 35 8 35V35C9.65685 35 11 33.6569 11 32V32C11 30.3431 9.65685 29 8 29V29Z" fill="black"/>
<path d="M20 29C18.3431 29 17 30.3431 17 32V32C17 33.6569 18.3431 35 20 35V35C21.6569 35 23 33.6569 23 32V32C23 30.3431 21.6569 29 20 29V29Z" fill="black"/>
<path d="M32 29C30.3431 29 29 30.3431 29 32V32C29 33.6569 30.3431 35 32 35V35C33.6569 35 35 33.6569 35 32V32C35 30.3431 33.6569 29 32 29V29Z" fill="black"/>
<path d="M8 17C6.34315 17 5 18.3431 5 20V20C5 21.6569 6.34315 23 8 23V23C9.65685 23 11 21.6569 11 20V20C11 18.3431 9.65685 17 8 17V17Z" stroke="black" stroke-width="2" stroke-linecap="round" stroke-linejoin="round"/>
<path d="M20 17C18.3431 17 17 18.3431 17 20V20C17 21.6569 18.3431 23 20 23V23C21.6569 23 23 21.6569 23 20V20C23 18.3431 21.6569 17 20 17V17Z" stroke="black" stroke-width="2" stroke-linecap="round" stroke-linejoin="round"/>
<path d="M32 17C30.3431 17 29 18.3431 29 20V20C29 21.6569 30.3431 23 32 23V23C33.6569 23 35 21.6569 35 20V20C35 18.3431 33.6569 17 32 17V17Z" stroke="black" stroke-width="2" stroke-linecap="round" stroke-linejoin="round"/>
<path d="M32 5C30.3431 5 29 6.34315 29 8V8C29 9.65685 30.3431 11 32 11V11C33.6569 11 35 9.65685 35 8V8C35 6.34315 33.6569 5 32 5V5Z" stroke="black" stroke-width="2" stroke-linecap="round" stroke-linejoin="round"/>
<path d="M20 5C18.3431 5 17 6.34315 17 8V8C17 9.65685 18.3431 11 20 11V11C21.6569 11 23 9.65685 23 8V8C23 6.34315 21.6569 5 20 5V5Z" stroke="black" stroke-width="2" stroke-linecap="round" stroke-linejoin="round"/>
<path d="M8 5C6.34315 5 5 6.34315 5 8V8C5 9.65685 6.34315 11 8 11V11C9.65685 11 11 9.65685 11 8V8C11 6.34315 9.65685 5 8 5V5Z" stroke="black" stroke-width="2" stroke-linecap="round" stroke-linejoin="round"/>
<path d="M8 29C6.34315 29 5 30.3431 5 32V32C5 33.6569 6.34315 35 8 35V35C9.65685 35 11 33.6569 11 32V32C11 30.3431 9.65685 29 8 29V29Z" stroke="black" stroke-width="2" stroke-linecap="round" stroke-linejoin="round"/>
<path d="M20 29C18.3431 29 17 30.3431 17 32V32C17 33.6569 18.3431 35 20 35V35C21.6569 35 23 33.6569 23 32V32C23 30.3431 21.6569 29 20 29V29Z" stroke="black" stroke-width="2" stroke-linecap="round" stroke-linejoin="round"/>
<path d="M32 29C30.3431 29 29 30.3431 29 32V32C29 33.6569 30.3431 35 32 35V35C33.6569 35 35 33.6569 35 32V32C35 30.3431 33.6569 29 32 29V29Z" stroke="black" stroke-width="2" stroke-linecap="round" stroke-linejoin="round"/>
</svg>
