<svg width="40" height="40" viewBox="0 0 40 40" fill="none" xmlns="http://www.w3.org/2000/svg">
<rect x="0.5" y="0.5" width="39" height="39" rx="5.5" fill="white" fill-opacity="0.2"/>
<path d="M20 17C18.3431 17 17 18.3431 17 20V32C17 33.6569 18.3431 35 20 35H32C33.6569 35 35 33.6569 35 32V20C35 18.3431 33.6569 17 32 17H20Z" fill="url(#paint0_radial_26_88)"/>
<path d="M20 17C18.3431 17 17 18.3431 17 20V32C17 33.6569 18.3431 35 20 35H32C33.6569 35 35 33.6569 35 32V20C35 18.3431 33.6569 17 32 17H20Z" fill="url(#paint1_radial_26_88)"/>
<path d="M20 17C18.3431 17 17 18.3431 17 20V32C17 33.6569 18.3431 35 20 35H32C33.6569 35 35 33.6569 35 32V20C35 18.3431 33.6569 17 32 17H20Z" fill="url(#paint2_radial_26_88)"/>
<path d="M8 29C6.34315 29 5 30.3431 5 32V32C5 33.6569 6.34315 35 8 35V35C9.65685 35 11 33.6569 11 32V32C11 30.3431 9.65685 29 8 29V29Z" fill="url(#paint3_radial_26_88)"/>
<path d="M8 29C6.34315 29 5 30.3431 5 32V32C5 33.6569 6.34315 35 8 35V35C9.65685 35 11 33.6569 11 32V32C11 30.3431 9.65685 29 8 29V29Z" fill="url(#paint4_radial_26_88)"/>
<path d="M8 29C6.34315 29 5 30.3431 5 32V32C5 33.6569 6.34315 35 8 35V35C9.65685 35 11 33.6569 11 32V32C11 30.3431 9.65685 29 8 29V29Z" fill="url(#paint5_radial_26_88)"/>
<path d="M8 17C6.34315 17 5 18.3431 5 20V20C5 21.6569 6.34315 23 8 23V23C9.65685 23 11 21.6569 11 20V20C11 18.3431 9.65685 17 8 17V17Z" fill="url(#paint6_radial_26_88)"/>
<path d="M8 17C6.34315 17 5 18.3431 5 20V20C5 21.6569 6.34315 23 8 23V23C9.65685 23 11 21.6569 11 20V20C11 18.3431 9.65685 17 8 17V17Z" fill="url(#paint7_radial_26_88)"/>
<path d="M8 17C6.34315 17 5 18.3431 5 20V20C5 21.6569 6.34315 23 8 23V23C9.65685 23 11 21.6569 11 20V20C11 18.3431 9.65685 17 8 17V17Z" fill="url(#paint8_radial_26_88)"/>
<path d="M8 5C6.34315 5 5 6.34315 5 8V8C5 9.65685 6.34315 11 8 11H20C21.6569 11 23 9.65685 23 8V8C23 6.34315 21.6569 5 20 5H8Z" fill="url(#paint9_radial_26_88)"/>
<path d="M8 5C6.34315 5 5 6.34315 5 8V8C5 9.65685 6.34315 11 8 11H20C21.6569 11 23 9.65685 23 8V8C23 6.34315 21.6569 5 20 5H8Z" fill="url(#paint10_radial_26_88)"/>
<path d="M8 5C6.34315 5 5 6.34315 5 8V8C5 9.65685 6.34315 11 8 11H20C21.6569 11 23 9.65685 23 8V8C23 6.34315 21.6569 5 20 5H8Z" fill="url(#paint11_radial_26_88)"/>
<path d="M32 5C30.3431 5 29 6.34315 29 8V8C29 9.65685 30.3431 11 32 11V11C33.6569 11 35 9.65685 35 8V8C35 6.34315 33.6569 5 32 5V5Z" fill="url(#paint12_radial_26_88)"/>
<path d="M32 5C30.3431 5 29 6.34315 29 8V8C29 9.65685 30.3431 11 32 11V11C33.6569 11 35 9.65685 35 8V8C35 6.34315 33.6569 5 32 5V5Z" fill="url(#paint13_radial_26_88)"/>
<path d="M32 5C30.3431 5 29 6.34315 29 8V8C29 9.65685 30.3431 11 32 11V11C33.6569 11 35 9.65685 35 8V8C35 6.34315 33.6569 5 32 5V5Z" fill="url(#paint14_radial_26_88)"/>
<path d="M20 17C18.3431 17 17 18.3431 17 20V32C17 33.6569 18.3431 35 20 35H32C33.6569 35 35 33.6569 35 32V20C35 18.3431 33.6569 17 32 17H20Z" stroke="url(#paint15_radial_26_88)" stroke-width="2" stroke-linecap="round" stroke-linejoin="round"/>
<path d="M20 17C18.3431 17 17 18.3431 17 20V32C17 33.6569 18.3431 35 20 35H32C33.6569 35 35 33.6569 35 32V20C35 18.3431 33.6569 17 32 17H20Z" stroke="url(#paint16_radial_26_88)" stroke-width="2" stroke-linecap="round" stroke-linejoin="round"/>
<path d="M20 17C18.3431 17 17 18.3431 17 20V32C17 33.6569 18.3431 35 20 35H32C33.6569 35 35 33.6569 35 32V20C35 18.3431 33.6569 17 32 17H20Z" stroke="url(#paint17_radial_26_88)" stroke-width="2" stroke-linecap="round" stroke-linejoin="round"/>
<path d="M8 29C6.34315 29 5 30.3431 5 32V32C5 33.6569 6.34315 35 8 35V35C9.65685 35 11 33.6569 11 32V32C11 30.3431 9.65685 29 8 29V29Z" stroke="url(#paint18_radial_26_88)" stroke-width="2" stroke-linecap="round" stroke-linejoin="round"/>
<path d="M8 29C6.34315 29 5 30.3431 5 32V32C5 33.6569 6.34315 35 8 35V35C9.65685 35 11 33.6569 11 32V32C11 30.3431 9.65685 29 8 29V29Z" stroke="url(#paint19_radial_26_88)" stroke-width="2" stroke-linecap="round" stroke-linejoin="round"/>
<path d="M8 29C6.34315 29 5 30.3431 5 32V32C5 33.6569 6.34315 35 8 35V35C9.65685 35 11 33.6569 11 32V32C11 30.3431 9.65685 29 8 29V29Z" stroke="url(#paint20_radial_26_88)" stroke-width="2" stroke-linecap="round" stroke-linejoin="round"/>
<path d="M8 17C6.34315 17 5 18.3431 5 20V20C5 21.6569 6.34315 23 8 23V23C9.65685 23 11 21.6569 11 20V20C11 18.3431 9.65685 17 8 17V17Z" stroke="url(#paint21_radial_26_88)" stroke-width="2" stroke-linecap="round" stroke-linejoin="round"/>
<path d="M8 17C6.34315 17 5 18.3431 5 20V20C5 21.6569 6.34315 23 8 23V23C9.65685 23 11 21.6569 11 20V20C11 18.3431 9.65685 17 8 17V17Z" stroke="url(#paint22_radial_26_88)" stroke-width="2" stroke-linecap="round" stroke-linejoin="round"/>
<path d="M8 17C6.34315 17 5 18.3431 5 20V20C5 21.6569 6.34315 23 8 23V23C9.65685 23 11 21.6569 11 20V20C11 18.3431 9.65685 17 8 17V17Z" stroke="url(#paint23_radial_26_88)" stroke-width="2" stroke-linecap="round" stroke-linejoin="round"/>
<path d="M8 5C6.34315 5 5 6.34315 5 8V8C5 9.65685 6.34315 11 8 11H20C21.6569 11 23 9.65685 23 8V8C23 6.34315 21.6569 5 20 5H8Z" stroke="url(#paint24_radial_26_88)" stroke-width="2" stroke-linecap="round" stroke-linejoin="round"/>
<path d="M8 5C6.34315 5 5 6.34315 5 8V8C5 9.65685 6.34315 11 8 11H20C21.6569 11 23 9.65685 23 8V8C23 6.34315 21.6569 5 20 5H8Z" stroke="url(#paint25_radial_26_88)" stroke-width="2" stroke-linecap="round" stroke-linejoin="round"/>
<path d="M8 5C6.34315 5 5 6.34315 5 8V8C5 9.65685 6.34315 11 8 11H20C21.6569 11 23 9.65685 23 8V8C23 6.34315 21.6569 5 20 5H8Z" stroke="url(#paint26_radial_26_88)" stroke-width="2" stroke-linecap="round" stroke-linejoin="round"/>
<path d="M32 5C30.3431 5 29 6.34315 29 8V8C29 9.65685 30.3431 11 32 11V11C33.6569 11 35 9.65685 35 8V8C35 6.34315 33.6569 5 32 5V5Z" stroke="url(#paint27_radial_26_88)" stroke-width="2" stroke-linecap="round" stroke-linejoin="round"/>
<path d="M32 5C30.3431 5 29 6.34315 29 8V8C29 9.65685 30.3431 11 32 11V11C33.6569 11 35 9.65685 35 8V8C35 6.34315 33.6569 5 32 5V5Z" stroke="url(#paint28_radial_26_88)" stroke-width="2" stroke-linecap="round" stroke-linejoin="round"/>
<path d="M32 5C30.3431 5 29 6.34315 29 8V8C29 9.65685 30.3431 11 32 11V11C33.6569 11 35 9.65685 35 8V8C35 6.34315 33.6569 5 32 5V5Z" stroke="url(#paint29_radial_26_88)" stroke-width="2" stroke-linecap="round" stroke-linejoin="round"/>
<rect x="0.5" y="0.5" width="39" height="39" rx="5.5" stroke="url(#paint30_linear_26_88)"/>
<defs>
<radialGradient id="paint0_radial_26_88" cx="0" cy="0" r="1" gradientUnits="userSpaceOnUse" gradientTransform="translate(5 12.0898) rotate(37.368) scale(37.7475)">
<stop stop-color="#6100FF"/>
<stop offset="0.582544" stop-color="#0B033C"/>
<stop offset="1"/>
</radialGradient>
<radialGradient id="paint1_radial_26_88" cx="0" cy="0" r="1" gradientUnits="userSpaceOnUse" gradientTransform="translate(35 20.8203) rotate(154.702) scale(33.1823)">
<stop stop-color="#CC00FF"/>
<stop offset="0.395099" stop-color="#0B033C"/>
<stop offset="1" stop-opacity="0"/>
</radialGradient>
<radialGradient id="paint2_radial_26_88" cx="0" cy="0" r="1" gradientUnits="userSpaceOnUse" gradientTransform="translate(11.5625 35) rotate(-52.0013) scale(38.0699)">
<stop stop-color="#107EBB"/>
<stop offset="0.395099" stop-color="#03203C"/>
<stop offset="1" stop-opacity="0"/>
</radialGradient>
<radialGradient id="paint3_radial_26_88" cx="0" cy="0" r="1" gradientUnits="userSpaceOnUse" gradientTransform="translate(5 12.0898) rotate(37.368) scale(37.7475)">
<stop stop-color="#6100FF"/>
<stop offset="0.582544" stop-color="#0B033C"/>
<stop offset="1"/>
</radialGradient>
<radialGradient id="paint4_radial_26_88" cx="0" cy="0" r="1" gradientUnits="userSpaceOnUse" gradientTransform="translate(35 20.8203) rotate(154.702) scale(33.1823)">
<stop stop-color="#CC00FF"/>
<stop offset="0.395099" stop-color="#0B033C"/>
<stop offset="1" stop-opacity="0"/>
</radialGradient>
<radialGradient id="paint5_radial_26_88" cx="0" cy="0" r="1" gradientUnits="userSpaceOnUse" gradientTransform="translate(11.5625 35) rotate(-52.0013) scale(38.0699)">
<stop stop-color="#107EBB"/>
<stop offset="0.395099" stop-color="#03203C"/>
<stop offset="1" stop-opacity="0"/>
</radialGradient>
<radialGradient id="paint6_radial_26_88" cx="0" cy="0" r="1" gradientUnits="userSpaceOnUse" gradientTransform="translate(5 12.0898) rotate(37.368) scale(37.7475)">
<stop stop-color="#6100FF"/>
<stop offset="0.582544" stop-color="#0B033C"/>
<stop offset="1"/>
</radialGradient>
<radialGradient id="paint7_radial_26_88" cx="0" cy="0" r="1" gradientUnits="userSpaceOnUse" gradientTransform="translate(35 20.8203) rotate(154.702) scale(33.1823)">
<stop stop-color="#CC00FF"/>
<stop offset="0.395099" stop-color="#0B033C"/>
<stop offset="1" stop-opacity="0"/>
</radialGradient>
<radialGradient id="paint8_radial_26_88" cx="0" cy="0" r="1" gradientUnits="userSpaceOnUse" gradientTransform="translate(11.5625 35) rotate(-52.0013) scale(38.0699)">
<stop stop-color="#107EBB"/>
<stop offset="0.395099" stop-color="#03203C"/>
<stop offset="1" stop-opacity="0"/>
</radialGradient>
<radialGradient id="paint9_radial_26_88" cx="0" cy="0" r="1" gradientUnits="userSpaceOnUse" gradientTransform="translate(5 12.0898) rotate(37.368) scale(37.7475)">
<stop stop-color="#6100FF"/>
<stop offset="0.582544" stop-color="#0B033C"/>
<stop offset="1"/>
</radialGradient>
<radialGradient id="paint10_radial_26_88" cx="0" cy="0" r="1" gradientUnits="userSpaceOnUse" gradientTransform="translate(35 20.8203) rotate(154.702) scale(33.1823)">
<stop stop-color="#CC00FF"/>
<stop offset="0.395099" stop-color="#0B033C"/>
<stop offset="1" stop-opacity="0"/>
</radialGradient>
<radialGradient id="paint11_radial_26_88" cx="0" cy="0" r="1" gradientUnits="userSpaceOnUse" gradientTransform="translate(11.5625 35) rotate(-52.0013) scale(38.0699)">
<stop stop-color="#107EBB"/>
<stop offset="0.395099" stop-color="#03203C"/>
<stop offset="1" stop-opacity="0"/>
</radialGradient>
<radialGradient id="paint12_radial_26_88" cx="0" cy="0" r="1" gradientUnits="userSpaceOnUse" gradientTransform="translate(5 12.0898) rotate(37.368) scale(37.7475)">
<stop stop-color="#6100FF"/>
<stop offset="0.582544" stop-color="#0B033C"/>
<stop offset="1"/>
</radialGradient>
<radialGradient id="paint13_radial_26_88" cx="0" cy="0" r="1" gradientUnits="userSpaceOnUse" gradientTransform="translate(35 20.8203) rotate(154.702) scale(33.1823)">
<stop stop-color="#CC00FF"/>
<stop offset="0.395099" stop-color="#0B033C"/>
<stop offset="1" stop-opacity="0"/>
</radialGradient>
<radialGradient id="paint14_radial_26_88" cx="0" cy="0" r="1" gradientUnits="userSpaceOnUse" gradientTransform="translate(11.5625 35) rotate(-52.0013) scale(38.0699)">
<stop stop-color="#107EBB"/>
<stop offset="0.395099" stop-color="#03203C"/>
<stop offset="1" stop-opacity="0"/>
</radialGradient>
<radialGradient id="paint15_radial_26_88" cx="0" cy="0" r="1" gradientUnits="userSpaceOnUse" gradientTransform="translate(5 12.0898) rotate(37.368) scale(37.7475)">
<stop stop-color="#6100FF"/>
<stop offset="0.582544" stop-color="#0B033C"/>
<stop offset="1"/>
</radialGradient>
<radialGradient id="paint16_radial_26_88" cx="0" cy="0" r="1" gradientUnits="userSpaceOnUse" gradientTransform="translate(35 20.8203) rotate(154.702) scale(33.1823)">
<stop stop-color="#CC00FF"/>
<stop offset="0.395099" stop-color="#0B033C"/>
<stop offset="1" stop-opacity="0"/>
</radialGradient>
<radialGradient id="paint17_radial_26_88" cx="0" cy="0" r="1" gradientUnits="userSpaceOnUse" gradientTransform="translate(11.5625 35) rotate(-52.0013) scale(38.0699)">
<stop stop-color="#107EBB"/>
<stop offset="0.395099" stop-color="#03203C"/>
<stop offset="1" stop-opacity="0"/>
</radialGradient>
<radialGradient id="paint18_radial_26_88" cx="0" cy="0" r="1" gradientUnits="userSpaceOnUse" gradientTransform="translate(5 12.0898) rotate(37.368) scale(37.7475)">
<stop stop-color="#6100FF"/>
<stop offset="0.582544" stop-color="#0B033C"/>
<stop offset="1"/>
</radialGradient>
<radialGradient id="paint19_radial_26_88" cx="0" cy="0" r="1" gradientUnits="userSpaceOnUse" gradientTransform="translate(35 20.8203) rotate(154.702) scale(33.1823)">
<stop stop-color="#CC00FF"/>
<stop offset="0.395099" stop-color="#0B033C"/>
<stop offset="1" stop-opacity="0"/>
</radialGradient>
<radialGradient id="paint20_radial_26_88" cx="0" cy="0" r="1" gradientUnits="userSpaceOnUse" gradientTransform="translate(11.5625 35) rotate(-52.0013) scale(38.0699)">
<stop stop-color="#107EBB"/>
<stop offset="0.395099" stop-color="#03203C"/>
<stop offset="1" stop-opacity="0"/>
</radialGradient>
<radialGradient id="paint21_radial_26_88" cx="0" cy="0" r="1" gradientUnits="userSpaceOnUse" gradientTransform="translate(5 12.0898) rotate(37.368) scale(37.7475)">
<stop stop-color="#6100FF"/>
<stop offset="0.582544" stop-color="#0B033C"/>
<stop offset="1"/>
</radialGradient>
<radialGradient id="paint22_radial_26_88" cx="0" cy="0" r="1" gradientUnits="userSpaceOnUse" gradientTransform="translate(35 20.8203) rotate(154.702) scale(33.1823)">
<stop stop-color="#CC00FF"/>
<stop offset="0.395099" stop-color="#0B033C"/>
<stop offset="1" stop-opacity="0"/>
</radialGradient>
<radialGradient id="paint23_radial_26_88" cx="0" cy="0" r="1" gradientUnits="userSpaceOnUse" gradientTransform="translate(11.5625 35) rotate(-52.0013) scale(38.0699)">
<stop stop-color="#107EBB"/>
<stop offset="0.395099" stop-color="#03203C"/>
<stop offset="1" stop-opacity="0"/>
</radialGradient>
<radialGradient id="paint24_radial_26_88" cx="0" cy="0" r="1" gradientUnits="userSpaceOnUse" gradientTransform="translate(5 12.0898) rotate(37.368) scale(37.7475)">
<stop stop-color="#6100FF"/>
<stop offset="0.582544" stop-color="#0B033C"/>
<stop offset="1"/>
</radialGradient>
<radialGradient id="paint25_radial_26_88" cx="0" cy="0" r="1" gradientUnits="userSpaceOnUse" gradientTransform="translate(35 20.8203) rotate(154.702) scale(33.1823)">
<stop stop-color="#CC00FF"/>
<stop offset="0.395099" stop-color="#0B033C"/>
<stop offset="1" stop-opacity="0"/>
</radialGradient>
<radialGradient id="paint26_radial_26_88" cx="0" cy="0" r="1" gradientUnits="userSpaceOnUse" gradientTransform="translate(11.5625 35) rotate(-52.0013) scale(38.0699)">
<stop stop-color="#107EBB"/>
<stop offset="0.395099" stop-color="#03203C"/>
<stop offset="1" stop-opacity="0"/>
</radialGradient>
<radialGradient id="paint27_radial_26_88" cx="0" cy="0" r="1" gradientUnits="userSpaceOnUse" gradientTransform="translate(5 12.0898) rotate(37.368) scale(37.7475)">
<stop stop-color="#6100FF"/>
<stop offset="0.582544" stop-color="#0B033C"/>
<stop offset="1"/>
</radialGradient>
<radialGradient id="paint28_radial_26_88" cx="0" cy="0" r="1" gradientUnits="userSpaceOnUse" gradientTransform="translate(35 20.8203) rotate(154.702) scale(33.1823)">
<stop stop-color="#CC00FF"/>
<stop offset="0.395099" stop-color="#0B033C"/>
<stop offset="1" stop-opacity="0"/>
</radialGradient>
<radialGradient id="paint29_radial_26_88" cx="0" cy="0" r="1" gradientUnits="userSpaceOnUse" gradientTransform="translate(11.5625 35) rotate(-52.0013) scale(38.0699)">
<stop stop-color="#107EBB"/>
<stop offset="0.395099" stop-color="#03203C"/>
<stop offset="1" stop-opacity="0"/>
</radialGradient>
<linearGradient id="paint30_linear_26_88" x1="20" y1="0" x2="20" y2="40" gradientUnits="userSpaceOnUse">
<stop stop-opacity="0.1"/>
<stop offset="1" stop-opacity="0.2"/>
</linearGradient>
</defs>
</svg>
