<svg width="40" height="40" viewBox="0 0 40 40" fill="none" xmlns="http://www.w3.org/2000/svg">
<path d="M8 17.5V17.5C6.34315 17.5 5 18.8431 5 20.5V30C5 31.6569 6.34315 33 8 33H32C33.6569 33 35 31.6569 35 30V20.5C35 18.8431 33.6569 17.5 32 17.5V17.5M8 17.5V13.5C8 12.3954 8.89543 11.5 10 11.5H11M8 17.5H32M32 17.5V13.5C32 12.3954 31.1046 11.5 30 11.5H29M29 11.5V9C29 7.89543 28.1046 7 27 7H13C11.8954 7 11 7.89543 11 9V11.5M29 11.5H11" stroke="black" stroke-width="2" stroke-linecap="round" stroke-linejoin="round"/>
</svg>
