<svg width="40" height="40" viewBox="0 0 40 40" fill="none" xmlns="http://www.w3.org/2000/svg">
<path d="M31 20C31 21.6569 29.6569 23 28 23C26.3431 23 25 21.6569 25 20M31 20C31 18.3431 29.6569 17 28 17C26.3431 17 25 18.3431 25 20M31 20H35ZM25 20H5ZM17 10C17 11.6569 15.6569 13 14 13C12.3431 13 11 11.6569 11 10M17 10C17 8.34315 15.6569 7 14 7C12.3431 7 11 8.34315 11 10M17 10H35ZM11 10H5ZM23 30C23 31.6569 21.6569 33 20 33C18.3431 33 17 31.6569 17 30M23 30C23 28.3431 21.6569 27 20 27C18.3431 27 17 28.3431 17 30M23 30H35ZM17 30H5Z" fill="url(#paint0_radial_10_9)"/>
<path d="M31 20C31 21.6569 29.6569 23 28 23C26.3431 23 25 21.6569 25 20M31 20C31 18.3431 29.6569 17 28 17C26.3431 17 25 18.3431 25 20M31 20H35M25 20H5M17 10C17 11.6569 15.6569 13 14 13C12.3431 13 11 11.6569 11 10M17 10C17 8.34315 15.6569 7 14 7C12.3431 7 11 8.34315 11 10M17 10H35M11 10H5M23 30C23 31.6569 21.6569 33 20 33C18.3431 33 17 31.6569 17 30M23 30C23 28.3431 21.6569 27 20 27C18.3431 27 17 28.3431 17 30M23 30H35M17 30H5" stroke="white" stroke-width="2" stroke-linecap="round" stroke-linejoin="round"/>
<defs>
<radialGradient id="paint0_radial_10_9" cx="0" cy="0" r="1" gradientUnits="userSpaceOnUse" gradientTransform="translate(23.5 16.9667) rotate(107.904) scale(11.3847 12.8272)">
<stop stop-color="#8000FF"/>
<stop offset="0.375" stop-color="#BC00FF"/>
<stop offset="1" stop-color="#FF00A8"/>
</radialGradient>
</defs>
</svg>
