<svg width="16" height="16" viewBox="0 0 16 16" fill="none" xmlns="http://www.w3.org/2000/svg">
<path d="M1 10H0C0 10.5523 0.447715 11 1 11L1 10ZM1 6V5C0.447715 5 0 5.44772 0 6H1ZM4 6V7C4.26522 7 4.51957 6.89464 4.70711 6.70711L4 6ZM4 10L4.70711 9.29289C4.51957 9.10536 4.26522 9 4 9V10ZM7 13L6.29289 13.7071C6.57889 13.9931 7.00901 14.0787 7.38268 13.9239C7.75636 13.7691 8 13.4045 8 13H7ZM7 3H8C8 2.59554 7.75636 2.2309 7.38268 2.07612C7.00901 1.92134 6.57889 2.0069 6.29289 2.29289L7 3ZM11.3944 5.55279C11.1474 5.05881 10.5468 4.85858 10.0528 5.10557C9.55881 5.35256 9.35858 5.95324 9.60557 6.44721L11.3944 5.55279ZM9.60557 9.55279C9.35858 10.0468 9.55881 10.6474 10.0528 10.8944C10.5468 11.1414 11.1474 10.9412 11.3944 10.4472L9.60557 9.55279ZM14.9088 2.58287C14.6785 2.08093 14.0848 1.86078 13.5829 2.09115C13.0809 2.32153 12.8608 2.91519 13.0912 3.41713L14.9088 2.58287ZM13.0912 12.5829C12.8608 13.0848 13.0809 13.6785 13.5829 13.9088C14.0848 14.1392 14.6785 13.9191 14.9088 13.4171L13.0912 12.5829ZM2 10V6H0V10H2ZM1 7H4V5H1V7ZM1 11H4V9H1V11ZM3.29289 10.7071L6.29289 13.7071L7.70711 12.2929L4.70711 9.29289L3.29289 10.7071ZM4.70711 6.70711L7.70711 3.70711L6.29289 2.29289L3.29289 5.29289L4.70711 6.70711ZM6 3V13H8V3H6ZM9.60557 6.44721C9.83992 6.91591 9.92312 7.15937 9.95997 7.33027C9.99658 7.50001 10 7.6455 10 8H12C12 7.67308 12.0034 7.31857 11.915 6.90866C11.8269 6.49992 11.6601 6.08409 11.3944 5.55279L9.60557 6.44721ZM10 8C10 8.3545 9.99658 8.49999 9.95997 8.66973C9.92312 8.84063 9.83992 9.08409 9.60557 9.55279L11.3944 10.4472C11.6601 9.91591 11.8269 9.50008 11.915 9.09134C12.0034 8.68143 12 8.32692 12 8H10ZM13.0912 3.41713C13.7172 4.78124 14 6.32635 14 8H16C16 6.10479 15.68 4.26299 14.9088 2.58287L13.0912 3.41713ZM14 8C14 9.67365 13.7172 11.2188 13.0912 12.5829L14.9088 13.4171C15.68 11.737 16 9.89521 16 8H14Z" fill="white"/>
</svg>
